<svg xmlns="http://www.w3.org/2000/svg" xmlns:xlink="http://www.w3.org/1999/xlink" viewBox="0 0 358 462.62"><defs><style>.cls-1{fill:#fff;}.cls-10,.cls-11,.cls-12,.cls-13,.cls-14,.cls-15,.cls-16,.cls-17,.cls-18,.cls-19,.cls-2,.cls-20,.cls-21,.cls-22,.cls-23,.cls-24,.cls-25,.cls-26,.cls-27,.cls-28,.cls-29,.cls-3,.cls-30,.cls-31,.cls-32,.cls-33,.cls-34,.cls-35,.cls-36,.cls-37,.cls-38,.cls-39,.cls-4,.cls-5,.cls-6,.cls-7,.cls-8,.cls-9{stroke:#1b6ebe;stroke-linecap:round;stroke-linejoin:round;stroke-width:2px;}.cls-2{fill:url(#Безымянный_градиент_5);}.cls-3{fill:url(#Безымянный_градиент_5-2);}.cls-4{fill:url(#Безымянный_градиент_5-3);}.cls-5{fill:url(#Безымянный_градиент_5-4);}.cls-6{fill:url(#Безымянный_градиент_5-5);}.cls-7{fill:url(#Безымянный_градиент_5-6);}.cls-8{fill:url(#Безымянный_градиент_5-7);}.cls-9{fill:url(#Безымянный_градиент_5-8);}.cls-10{fill:url(#Безымянный_градиент_5-9);}.cls-11{fill:url(#Безымянный_градиент_5-10);}.cls-12{fill:none;}.cls-13{fill:url(#Безымянный_градиент_5-11);}.cls-14{fill:url(#Безымянный_градиент_5-12);}.cls-15{fill:url(#Безымянный_градиент_5-13);}.cls-16{fill:url(#Безымянный_градиент_5-14);}.cls-17{fill:url(#Безымянный_градиент_5-15);}.cls-18{fill:url(#Безымянный_градиент_5-16);}.cls-19{fill:url(#Безымянный_градиент_5-17);}.cls-20{fill:url(#Безымянный_градиент_5-18);}.cls-21{fill:url(#Безымянный_градиент_5-19);}.cls-22{fill:url(#Безымянный_градиент_5-20);}.cls-23{fill:url(#Безымянный_градиент_5-21);}.cls-24{fill:url(#Безымянный_градиент_5-22);}.cls-25{fill:url(#Безымянный_градиент_5-23);}.cls-26{fill:url(#Безымянный_градиент_5-24);}.cls-27{fill:url(#Безымянный_градиент_5-25);}.cls-28{fill:url(#Безымянный_градиент_5-26);}.cls-29{fill:url(#Безымянный_градиент_5-27);}.cls-30{fill:url(#Безымянный_градиент_5-28);}.cls-31{fill:url(#Безымянный_градиент_5-29);}.cls-32{fill:url(#Безымянный_градиент_5-30);}.cls-33{fill:url(#Безымянный_градиент_5-31);}.cls-34{fill:url(#Безымянный_градиент_5-32);}.cls-35{fill:url(#Безымянный_градиент_5-33);}.cls-36{fill:url(#Безымянный_градиент_5-34);}.cls-37{fill:url(#Безымянный_градиент_5-35);}.cls-38{fill:url(#Безымянный_градиент_5-36);}.cls-39{fill:url(#Безымянный_градиент_5-37);}</style><linearGradient id="Безымянный_градиент_5" x1="57.35" y1="226.03" x2="75.62" y2="226.03" gradientUnits="userSpaceOnUse"><stop offset="0" stop-color="#fff"/><stop offset="1" stop-color="#d9dfec"/></linearGradient><linearGradient id="Безымянный_градиент_5-2" x1="26" y1="358.07" x2="72.94" y2="358.07" xlink:href="#Безымянный_градиент_5"/><linearGradient id="Безымянный_градиент_5-3" x1="64.67" y1="361.67" x2="120.5" y2="361.67" xlink:href="#Безымянный_градиент_5"/><linearGradient id="Безымянный_градиент_5-4" x1="203.63" y1="204.68" x2="355.34" y2="204.68" xlink:href="#Безымянный_градиент_5"/><linearGradient id="Безымянный_градиент_5-5" x1="211.84" y1="204.62" x2="355.34" y2="204.62" xlink:href="#Безымянный_градиент_5"/><linearGradient id="Безымянный_градиент_5-6" x1="222.83" y1="205.29" x2="351.18" y2="205.29" xlink:href="#Безымянный_градиент_5"/><linearGradient id="Безымянный_градиент_5-7" x1="65.67" y1="118.66" x2="121.63" y2="118.66" xlink:href="#Безымянный_градиент_5"/><linearGradient id="Безымянный_градиент_5-8" x1="151.07" y1="173.22" x2="172.25" y2="173.22" xlink:href="#Безымянный_градиент_5"/><linearGradient id="Безымянный_градиент_5-9" x1="249" y1="110.62" x2="287.67" y2="110.62" xlink:href="#Безымянный_градиент_5"/><linearGradient id="Безымянный_градиент_5-10" x1="62.79" y1="320.96" x2="199.44" y2="320.96" xlink:href="#Безымянный_градиент_5"/><linearGradient id="Безымянный_градиент_5-11" x1="319.78" y1="325.13" x2="336.82" y2="325.13" xlink:href="#Безымянный_градиент_5"/><linearGradient id="Безымянный_градиент_5-12" x1="192.67" y1="393.29" x2="289.71" y2="393.29" xlink:href="#Безымянный_градиент_5"/><linearGradient id="Безымянный_градиент_5-13" x1="224.26" y1="415.58" x2="297.81" y2="415.58" xlink:href="#Безымянный_градиент_5"/><linearGradient id="Безымянный_градиент_5-14" x1="323.83" y1="325.67" x2="341.77" y2="325.67" xlink:href="#Безымянный_градиент_5"/><linearGradient id="Безымянный_градиент_5-15" x1="-574.29" y1="206.67" x2="-557.62" y2="206.67" gradientTransform="translate(558.3 -103.95) rotate(-10.98)" xlink:href="#Безымянный_градиент_5"/><linearGradient id="Безымянный_градиент_5-16" x1="52.3" y1="222.13" x2="72.33" y2="222.13" xlink:href="#Безымянный_градиент_5"/><linearGradient id="Безымянный_градиент_5-17" x1="33.43" y1="337.41" x2="114.25" y2="337.41" xlink:href="#Безымянный_градиент_5"/><linearGradient id="Безымянный_градиент_5-18" x1="83" y1="283.37" x2="131.33" y2="283.37" xlink:href="#Безымянный_градиент_5"/><linearGradient id="Безымянный_градиент_5-19" x1="183.68" y1="372.37" x2="183.69" y2="372.37" xlink:href="#Безымянный_градиент_5"/><linearGradient id="Безымянный_градиент_5-20" x1="183.69" y1="367.33" x2="280.75" y2="367.33" xlink:href="#Безымянный_градиент_5"/><linearGradient id="Безымянный_градиент_5-21" x1="55.64" y1="265.97" x2="81.81" y2="265.97" xlink:href="#Безымянный_градиент_5"/><linearGradient id="Безымянный_градиент_5-22" x1="119.15" y1="426.17" x2="143.22" y2="426.17" xlink:href="#Безымянный_градиент_5"/><linearGradient id="Безымянный_градиент_5-23" x1="9.79" y1="427.31" x2="25.42" y2="427.31" xlink:href="#Безымянный_градиент_5"/><linearGradient id="Безымянный_градиент_5-24" x1="120.63" y1="314.04" x2="141.33" y2="314.04" xlink:href="#Безымянный_градиент_5"/><linearGradient id="Безымянный_градиент_5-25" x1="62.75" y1="279.28" x2="119.59" y2="279.28" xlink:href="#Безымянный_градиент_5"/><linearGradient id="Безымянный_градиент_5-26" x1="169" y1="427.37" x2="194.29" y2="427.37" xlink:href="#Безымянный_градиент_5"/><linearGradient id="Безымянный_градиент_5-27" x1="138.75" y1="271.61" x2="154" y2="271.61" xlink:href="#Безымянный_градиент_5"/><linearGradient id="Безымянный_градиент_5-28" x1="142.25" y1="246.81" x2="215.33" y2="246.81" xlink:href="#Безымянный_градиент_5"/><linearGradient id="Безымянный_градиент_5-29" x1="141.46" y1="267.25" x2="153.5" y2="267.25" xlink:href="#Безымянный_градиент_5"/><linearGradient id="Безымянный_градиент_5-30" x1="158" y1="380.79" x2="184.5" y2="380.79" xlink:href="#Безымянный_градиент_5"/><linearGradient id="Безымянный_градиент_5-31" x1="221.58" y1="347.76" x2="238.58" y2="347.76" xlink:href="#Безымянный_градиент_5"/><linearGradient id="Безымянный_градиент_5-32" x1="239.25" y1="364.08" x2="333.5" y2="364.08" xlink:href="#Безымянный_градиент_5"/><linearGradient id="Безымянный_градиент_5-33" x1="223.83" y1="374.99" x2="339.94" y2="374.99" xlink:href="#Безымянный_градиент_5"/><linearGradient id="Безымянный_градиент_5-34" x1="317.43" y1="408.09" x2="342.37" y2="408.09" xlink:href="#Безымянный_градиент_5"/><linearGradient id="Безымянный_градиент_5-35" x1="288" y1="366.02" x2="295.5" y2="366.02" xlink:href="#Безымянный_градиент_5"/><linearGradient id="Безымянный_градиент_5-36" x1="298" y1="392.75" x2="322.33" y2="392.75" xlink:href="#Безымянный_градиент_5"/><linearGradient id="Безымянный_градиент_5-37" x1="18" y1="430.93" x2="21.17" y2="430.93" xlink:href="#Безымянный_градиент_5"/></defs><title>img-1</title><g id="Слой_2" data-name="Слой 2"><g id="Слой_1-2" data-name="Слой 1"><rect class="cls-1" width="358" height="462.62"/><circle class="cls-2" cx="66.49" cy="226.03" r="9.14"/><path class="cls-3" d="M63.33,304.62s-20.93-3-12.07,47.93C46.83,371.93,31.54,357.37,26,415c28.57-25,35.78-56.31,35.78-56.31s10-31.56,11.07-48.17S63.33,304.62,63.33,304.62Z"/><path class="cls-4" d="M64.67,312.62S71.19,343.69,95,351.44c-2.77,18.27,3.9,50.44,25.5,63.18C111.75,345.87,91.82,293.77,64.67,312.62Z"/><rect class="cls-5" x="203.63" y="146.82" width="151.71" height="115.72"/><rect class="cls-6" x="211.84" y="155.29" width="143.51" height="98.66"/><polyline class="cls-7" points="222.84 232.13 254.66 203.97 272.56 222.16 302.78 194.73 315.31 208.96 351.18 178.44"/><rect class="cls-8" x="65.67" y="81.62" width="55.96" height="74.07"/><rect class="cls-9" x="151.07" y="156.48" width="21.18" height="33.5"/><rect class="cls-10" x="249" y="97.29" width="38.67" height="26.67"/><rect class="cls-11" x="62.79" y="318.46" width="136.65" height="5" rx="2.5" ry="2.5"/><path class="cls-12" d="M176.5,431V335.73a6.86,6.86,0,0,0-6.86-6.86H148.1v-5.5"/><path class="cls-12" d="M116.33,324.68v4.2H92.6a6.86,6.86,0,0,0-6.86,6.86V431"/><circle class="cls-13" cx="328.3" cy="325.13" r="8.52"/><path class="cls-14" d="M289.67,397c-19.17-25.33-57.88-27.8-58.42-28.33C202.5,378.87,196,407,192.67,418c0,0,25.33-5.33,40.28-31.84C250,405.57,291.19,402.27,289.67,397Z"/><path class="cls-15" d="M227.74,435.55c-9.32,0,0-36.65,29.28-39.6,44-4.42,44,33.93,38,33.93-8,0,.3-24.2-30.45-23.53C239.32,406.9,235.26,435.55,227.74,435.55Z"/><path class="cls-16" d="M327,313.12s-6,9.75-1.5,11c-2.5,10,4,12,7.25,14.5-1.25-6.25,11.75-4.5,8.5-20C339.67,314.62,333,311.62,327,313.12Z"/><path class="cls-17" d="M32.2,199.7s18,2,19.68,14C40.33,215.82,32.2,199.7,32.2,199.7Z"/><path class="cls-18" d="M72.33,219S64,218.62,65,226.62c.59,4.72-.33,0-3.33,6.33-8-1.92-10.38-9.31-9-14C56,207.62,72.33,210,72.33,219Z"/><path class="cls-19" d="M33.43,364.73s21.64,27,80.82,11.89c-6.75-31.5-19.25-65.5-41.75-83-17.83-.33-28.77,20.32-23,46.43C43.73,352.51,33.43,364.73,33.43,364.73Z"/><path class="cls-20" d="M83,284.62s13-14.81,48.33-6.67C115.17,295.1,100.25,293.7,83,284.62Z"/><polygon class="cls-21" points="183.69 372.38 183.69 372.37 183.68 372.37 183.69 372.38"/><path class="cls-22" d="M280.75,386.37c-7-13.21-19.18-32.93-31.12-36-23.81-12.66-54.32,12.67-65.94,22,.29.11,15.77,9.65,45.56-4.25.9,1.68,11.55,2.37,16,3a65.8,65.8,0,0,1,32.58,15.17C277.59,389.65,280.75,386.37,280.75,386.37Z"/><path class="cls-23" d="M57.83,244.62c-8.38,10,9.74,46.34,13.17,43.5C95.4,257.27,73,239.22,57.83,244.62Z"/><path class="cls-24" d="M119.17,420.12a54.48,54.48,0,0,0,1,11.33h1.5l.33-4.83s12.17,6.5,19.67,5.5S127.5,420.62,119.17,420.12Z"/><path class="cls-25" d="M9.92,434.75H21.17l4.25-14.87H20.33C18.21,420.55,8.57,433.14,9.92,434.75Z"/><path class="cls-26" d="M122.5,318.12c1.58,0,18.83.17,18.83.17s-9.87-6.62-16.5-8.5C118,309.79,121.27,318.09,122.5,318.12Z"/><path class="cls-27" d="M74.64,257.15s48.95,49.14,44.7,48.14c-11.31-.1-33.11-4.47-36.67-22-6.5-9-20-10-19.92-24.67C64.17,251.87,69.75,251.62,74.64,257.15Z"/><path class="cls-28" d="M169,427.79l22.67-5.5,2.62,9.17H187l-.5-2.83S174,437.79,169,427.79Z"/><path class="cls-29" d="M154,266.37s-7,14.25-15.25,9.5C139,267.62,154,266.37,154,266.37Z"/><polygon class="cls-30" points="142.25 272.12 215.33 219.95 142.8 273.66 142.25 272.12"/><path class="cls-31" d="M145.75,265.37c2.33-1.21,4.22-1.94,7.75-.25-.25,2.5-11.75,5.25-11.75,5.25C140.37,269.36,144.23,266.16,145.75,265.37Z"/><path class="cls-32" d="M180.17,373.79,158,387.29s11.55,1.79,15.33-1.33a21.07,21.07,0,0,0,5.5-7l2.17,1.5,3.5-2.17Z"/><line class="cls-12" x1="203.63" y1="146.82" x2="211.84" y2="155.29"/><line class="cls-12" x1="211.84" y1="253.95" x2="203.63" y2="262.54"/><path class="cls-33" d="M238.58,345.37s-11.33-3.33-17,4C229.25,353.37,236.25,348.7,238.58,345.37Z"/><path class="cls-34" d="M279,356.12c-16.87-6.41-29.3-9-39.75-10,1.08,9.5,18,22,38.25,24.5a72.7,72.7,0,0,0,10.5-2.2c-2.67,7.2-.67,15.87-.67,15.87C300,372.6,333.5,346.45,333.5,346.45S308.75,336.37,279,356.12Z"/><path class="cls-35" d="M339,344.12c-19.38-2.23-40.58,19.7-51.91,39.6-19.33,7.76-42.28,4.23-58.35-1.29a3.7,3.7,0,0,0-4.34,5.46c9.73,15.62,40.32,19.19,56.53,17.88a1.82,1.82,0,0,0,.4,0c10.52-.21,21.25-1.71,30.42-7.17C329.23,388.22,343.84,353.45,339,344.12Z"/><path class="cls-36" d="M318.5,382.37c8.41,0,14,53.18,21.26,53.18s-2.06-54.93-12-54.93C321,380.62,314.88,382.37,318.5,382.37Z"/><path class="cls-37" d="M295.5,363.62s-2.25,2.6-7.5,4.8"/><path class="cls-38" d="M318.5,381.7c-2.83,0-14.5,8.75-20.5,22.08l8-2.83s9.42-10.5,16.33-14.67C321.67,384.29,320.1,381.7,318.5,381.7Z"/><line class="cls-39" x1="18" y1="427.12" x2="21.17" y2="434.75"/></g></g></svg>