<svg xmlns="http://www.w3.org/2000/svg" xmlns:xlink="http://www.w3.org/1999/xlink" viewBox="0 0 358 462"><defs><style>.cls-1{fill:#fff;}.cls-10,.cls-11,.cls-12,.cls-13,.cls-14,.cls-15,.cls-16,.cls-17,.cls-18,.cls-19,.cls-2,.cls-20,.cls-21,.cls-22,.cls-23,.cls-24,.cls-3,.cls-4,.cls-5,.cls-6,.cls-7,.cls-8,.cls-9{stroke:#1b6ebe;stroke-linecap:round;stroke-linejoin:round;stroke-width:2px;}.cls-2{fill:url(#Безымянный_градиент_5);}.cls-3{fill:none;}.cls-4{fill:url(#Безымянный_градиент_5-2);}.cls-5{fill:url(#Безымянный_градиент_5-3);}.cls-6{fill:url(#Безымянный_градиент_5-4);}.cls-7{fill:url(#Безымянный_градиент_5-5);}.cls-8{fill:url(#Безымянный_градиент_5-6);}.cls-9{fill:url(#Безымянный_градиент_5-7);}.cls-10{fill:url(#Безымянный_градиент_5-8);}.cls-11{fill:url(#Безымянный_градиент_5-9);}.cls-12{fill:url(#Безымянный_градиент_5-10);}.cls-13{fill:url(#Безымянный_градиент_5-11);}.cls-14{fill:url(#Безымянный_градиент_5-12);}.cls-15{fill:url(#Безымянный_градиент_5-13);}.cls-16{fill:url(#Безымянный_градиент_5-14);}.cls-17{fill:url(#Безымянный_градиент_5-15);}.cls-18{fill:url(#Безымянный_градиент_5-16);}.cls-19{fill:url(#Безымянный_градиент_5-17);}.cls-20{fill:url(#Безымянный_градиент_5-18);}.cls-21{fill:url(#Безымянный_градиент_5-19);}.cls-22{fill:url(#Безымянный_градиент_5-20);}.cls-23{fill:url(#Безымянный_градиент_5-21);}.cls-24{fill:url(#Безымянный_градиент_5-22);}</style><linearGradient id="Безымянный_градиент_5" x1="59.41" y1="69" x2="80.59" y2="69" gradientUnits="userSpaceOnUse"><stop offset="0" stop-color="#fff"/><stop offset="1" stop-color="#d9dfec"/></linearGradient><linearGradient id="Безымянный_градиент_5-2" x1="186.66" y1="338" x2="356.5" y2="338" xlink:href="#Безымянный_градиент_5"/><linearGradient id="Безымянный_градиент_5-3" x1="88.33" y1="381.34" x2="208" y2="381.34" xlink:href="#Безымянный_градиент_5"/><linearGradient id="Безымянный_градиент_5-4" x1="-2180.53" y1="-2787.53" x2="-2155.24" y2="-2787.53" gradientTransform="matrix(0.3, -0.95, -0.95, -0.3, -1889.87, -2480.96)" xlink:href="#Безымянный_градиент_5"/><linearGradient id="Безымянный_градиент_5-5" x1="79.82" y1="319.29" x2="103.31" y2="319.29" xlink:href="#Безымянный_градиент_5"/><linearGradient id="Безымянный_градиент_5-6" x1="114.74" y1="404.92" x2="136.66" y2="404.92" xlink:href="#Безымянный_градиент_5"/><linearGradient id="Безымянный_градиент_5-7" x1="78.79" y1="381.89" x2="171.25" y2="381.89" xlink:href="#Безымянный_градиент_5"/><linearGradient id="Безымянный_градиент_5-8" x1="31" y1="353.21" x2="128.33" y2="353.21" xlink:href="#Безымянный_градиент_5"/><linearGradient id="Безымянный_градиент_5-9" x1="93.5" y1="315.83" x2="202.33" y2="315.83" xlink:href="#Безымянный_градиент_5"/><linearGradient id="Безымянный_градиент_5-10" x1="206.05" y1="330.79" x2="228.13" y2="330.79" xlink:href="#Безымянный_градиент_5"/><linearGradient id="Безымянный_градиент_5-11" x1="82.33" y1="277.57" x2="114.5" y2="277.57" xlink:href="#Безымянный_градиент_5"/><linearGradient id="Безымянный_градиент_5-12" x1="38.8" y1="403.08" x2="60.55" y2="403.08" xlink:href="#Безымянный_градиент_5"/><linearGradient id="Безымянный_градиент_5-13" x1="1378.8" y1="420.23" x2="1387.8" y2="420.23" gradientTransform="translate(-715.58 -125.15) scale(0.72 1)" xlink:href="#Безымянный_градиент_5"/><linearGradient id="Безымянный_градиент_5-14" x1="279" y1="320.17" x2="291.5" y2="320.17" xlink:href="#Безымянный_градиент_5"/><linearGradient id="Безымянный_градиент_5-15" x1="169.45" y1="291.56" x2="249.67" y2="303.82" xlink:href="#Безымянный_градиент_5"/><linearGradient id="Безымянный_градиент_5-16" x1="642.6" y1="343.44" x2="660.8" y2="343.44" gradientTransform="translate(508.31 -408.37) rotate(90)" xlink:href="#Безымянный_градиент_5"/><linearGradient id="Безымянный_градиент_5-17" x1="638.63" y1="336.09" x2="664.89" y2="336.09" gradientTransform="translate(-427.47 -194.62) rotate(8.69)" xlink:href="#Безымянный_градиент_5"/><linearGradient id="Безымянный_градиент_5-18" x1="639.83" y1="383.53" x2="665.7" y2="383.53" gradientTransform="translate(-427.47 -194.62) rotate(8.69)" xlink:href="#Безымянный_градиент_5"/><linearGradient id="Безымянный_градиент_5-19" x1="111.6" y1="278.3" x2="147.4" y2="283.78" xlink:href="#Безымянный_градиент_5"/><linearGradient id="Безымянный_градиент_5-20" x1="248.6" y1="329.65" x2="272.15" y2="333.25" xlink:href="#Безымянный_градиент_5"/><linearGradient id="Безымянный_градиент_5-21" x1="1931.17" y1="428.66" x2="1960.24" y2="428.66" gradientTransform="matrix(-1, 0, 0, 1, 2167.95, 0)" xlink:href="#Безымянный_градиент_5"/><linearGradient id="Безымянный_градиент_5-22" x1="54.7" y1="135.43" x2="119.97" y2="145.4" xlink:href="#Безымянный_градиент_5"/></defs><title>img-2</title><g id="Слой_2" data-name="Слой 2"><g id="Слой_1-2" data-name="Слой 1"><rect class="cls-1" width="358" height="462"/><rect class="cls-2" x="59.41" y="52.25" width="21.18" height="33.5"/><path class="cls-3" d="M339.49,430.35V355a6.86,6.86,0,0,0-6.86-6.86H288.41v-5.5"/><path class="cls-3" d="M256.65,342.59v5.5H215.91A6.86,6.86,0,0,0,209,355v47"/><path class="cls-4" d="M356.5,341.16H189.82a3.16,3.16,0,0,1-3.16-3.16h0a3.16,3.16,0,0,1,3.16-3.16H356.5Z"/><circle class="cls-3" cx="105.8" cy="278.79" r="8.55"/><path class="cls-5" d="M88.33,356s45.53-24.33,86.67-2.67c9,4.75,33,65,33,65S177.5,413,165.25,372C141.25,363,97.33,374,88.33,356Z"/><path class="cls-3" d="M64.51,404.21l-1.87,13.12h3.2l3.06-12.26a2.24,2.24,0,0,0-3.57-2.29h0A2.24,2.24,0,0,0,64.51,404.21Z"/><path class="cls-3" d="M99.8,404.21l1.87,13.12h-3.2l-3.06-12.26A2.24,2.24,0,0,1,99,402.78h0A2.24,2.24,0,0,1,99.8,404.21Z"/><path class="cls-6" d="M111.19,437.68l12.07-20-8-5.26-2.19,6.95,2.55,1.33S103.16,429.9,111.19,437.68Z"/><path class="cls-7" d="M93,297.33S78,312,80,341.25C101.33,332.58,113,304.67,93,297.33Z"/><path class="cls-8" d="M118.89,376a4.28,4.28,0,0,1,3.58,3.42c6.35,24.67,14.2,54.41,14.2,54.41h-4.33L114.8,381A4.09,4.09,0,0,1,118.89,376Z"/><path class="cls-9" d="M78.8,355.67c-.69,16.89,25.78,20.58,72.45,13.58-3.8,4.25-36.5,9.75-26.75,46.5,44.5-44,46.75-51.25,46.75-51.25S132.8,334.33,78.8,355.67Z"/><path class="cls-10" d="M31,319s4.8,6,8.14,31.33C47,410.67,112.33,381,128.33,383c-5.67-26-50.58-7-59.33-32.67C60,324,50.33,314.33,31,319Z"/><path class="cls-11" d="M93.5,297s36.83,5,48.17,25c14-4,44.67-2,60.67,7.33-14,10.67-62,2-62,2S108.75,328.5,93.5,297Z"/><path class="cls-12" d="M207,328.5c3.88-2.75,16.88-2.5,21.13,6.13H210.42C204.63,333.63,205.88,330.13,207,328.5Z"/><path class="cls-13" d="M103.75,273.25s-.75,14.5-10.25,16c-6-.75-10.25-3.25-11-5.75-1.5-.25,7-20.5,20.5-17.25,11.5-2,11.5,7.75,11.5,7.75S107.75,276.25,103.75,273.25Z"/><path class="cls-14" d="M53.33,373.67,38.8,433.17h4.33S54.43,395,60.55,375.88C58.55,371.13,53.33,373.67,53.33,373.67Z"/><rect class="cls-15" x="271.26" y="266.08" width="6.44" height="58" transform="translate(107.45 -71.68) rotate(18.44)"/><polygon class="cls-16" points="291.5 334.67 279 334.67 279 305.67 283 305.67 291.5 334.67"/><path class="cls-17" d="M175,266.19s22.29,14.14,32,40.48c8.92,1.08,25.13,2.33,39.13,20.33-11.25,5.5-35.46-8-42.12-17.33-20-4.67-32.78-20.36-31.67-37C172.5,271.5,175,266.19,175,266.19Z"/><circle class="cls-18" cx="164.87" cy="243.33" r="9.1" transform="translate(-100.57 369.55) rotate(-81.31)"/><path class="cls-19" d="M153.07,244a11.27,11.27,0,0,0,6-6.16c2.34,3.74,6.94,5.87,19.6,2.49-2.59-2.66-1.2-2.2-3.35-7.85C171.53,222.54,148.75,222.61,153.07,244Z"/><path class="cls-20" d="M150.76,261.8s-9,26.7,4.34,43.32c10.9-7.12,20-23.69,19.94-38.93C164.62,257.18,150.76,261.8,150.76,261.8Z"/><path class="cls-21" d="M150.76,261.8s-29.84,15.11-42.51,38.45c19,4,40.08-26.25,40.08-26.25Z"/><path class="cls-22" d="M249.25,327.25s17.5-3,22.75,7H251S247,332.75,249.25,327.25Z"/><path class="cls-23" d="M236.79,429.23l-26.45-5.75-2.62,9.17H215l.5-2.83S231.79,439.23,236.79,429.23Z"/><line class="cls-3" x1="33" y1="336" x2="10" y2="336"/><polyline class="cls-3" points="205 281.34 205 87 355.82 87"/><rect class="cls-3" x="220.83" y="101.83" width="52.38" height="77.98"/><polyline class="cls-3" points="286.96 242.99 286.96 193.35 339.34 193.35 339.34 271.34"/><line class="cls-3" x1="339.34" y1="179.82" x2="286.96" y2="179.82"/><line class="cls-3" x1="286.96" y1="101.83" x2="339.34" y2="101.83"/><polyline class="cls-3" points="59.84 276 59.84 190.52 114.83 190.52 114.83 242.99"/><polyline class="cls-3" points="177.19 179.82 124.81 179.82 124.81 101.83 177.19 101.83"/><polyline class="cls-3" points="11.82 101.83 47.19 101.83 47.19 179.82"/><rect class="cls-24" x="59.83" y="101.83" width="55" height="77.17"/></g></g></svg>