<svg xmlns="http://www.w3.org/2000/svg" xmlns:xlink="http://www.w3.org/1999/xlink" viewBox="0 0 358.57 462"><defs><style>.cls-1{fill:#fff;}.cls-10,.cls-11,.cls-12,.cls-13,.cls-14,.cls-15,.cls-16,.cls-17,.cls-18,.cls-19,.cls-2,.cls-20,.cls-21,.cls-22,.cls-23,.cls-24,.cls-25,.cls-26,.cls-27,.cls-28,.cls-29,.cls-3,.cls-30,.cls-31,.cls-32,.cls-33,.cls-34,.cls-35,.cls-4,.cls-5,.cls-6,.cls-7,.cls-8,.cls-9{stroke:#1b6ebe;stroke-linecap:round;stroke-linejoin:round;stroke-width:2px;}.cls-2{fill:url(#Безымянный_градиент_5);}.cls-3{fill:url(#Безымянный_градиент_5-2);}.cls-4{fill:url(#Безымянный_градиент_5-3);}.cls-5{fill:url(#Безымянный_градиент_5-4);}.cls-6{fill:url(#Безымянный_градиент_5-5);}.cls-7{fill:url(#Безымянный_градиент_5-6);}.cls-8{fill:url(#Безымянный_градиент_5-7);}.cls-9{fill:url(#Безымянный_градиент_5-8);}.cls-10{fill:url(#Безымянный_градиент_5-9);}.cls-11{fill:url(#Безымянный_градиент_5-10);}.cls-12{fill:none;}.cls-13{fill:url(#Безымянный_градиент_5-11);}.cls-14{fill:url(#Безымянный_градиент_5-12);}.cls-15{fill:url(#Безымянный_градиент_5-13);}.cls-16{fill:url(#Безымянный_градиент_5-14);}.cls-17{fill:url(#Безымянный_градиент_5-15);}.cls-18{fill:url(#Безымянный_градиент_5-16);}.cls-19{fill:url(#Безымянный_градиент_5-17);}.cls-20{fill:url(#Безымянный_градиент_5-18);}.cls-21{fill:url(#Безымянный_градиент_5-19);}.cls-22{fill:url(#Безымянный_градиент_5-20);}.cls-23{fill:url(#Безымянный_градиент_5-21);}.cls-24{fill:url(#Безымянный_градиент_5-22);}.cls-25{fill:url(#Безымянный_градиент_5-23);}.cls-26{fill:url(#Безымянный_градиент_5-24);}.cls-27{fill:url(#Безымянный_градиент_5-25);}.cls-28{fill:url(#Безымянный_градиент_5-26);}.cls-29{fill:url(#Безымянный_градиент_5-27);}.cls-30{fill:url(#Безымянный_градиент_5-28);}.cls-31{fill:url(#Безымянный_градиент_5-29);}.cls-32{fill:url(#Безымянный_градиент_5-30);}.cls-33{fill:url(#Безымянный_градиент_5-31);}.cls-34{fill:url(#Безымянный_градиент_5-32);}.cls-35{fill:url(#Безымянный_градиент_5-33);}</style><linearGradient id="Безымянный_градиент_5" x1="122.98" y1="185" x2="144.16" y2="185" gradientUnits="userSpaceOnUse"><stop offset="0" stop-color="#fff"/><stop offset="1" stop-color="#d9dfec"/></linearGradient><linearGradient id="Безымянный_градиент_5-2" x1="24.96" y1="135.43" x2="90.23" y2="145.4" xlink:href="#Безымянный_градиент_5"/><linearGradient id="Безымянный_градиент_5-3" x1="249.69" y1="424.51" x2="260.81" y2="424.51" xlink:href="#Безымянный_градиент_5"/><linearGradient id="Безымянный_градиент_5-4" x1="228.41" y1="174.42" x2="272.19" y2="233.08" xlink:href="#Безымянный_градиент_5"/><linearGradient id="Безымянный_градиент_5-5" x1="272" y1="157.78" x2="315.79" y2="216.44" xlink:href="#Безымянный_градиент_5"/><linearGradient id="Безымянный_градиент_5-6" x1="226.78" y1="207.6" x2="277.4" y2="273.99" xlink:href="#Безымянный_градиент_5"/><linearGradient id="Безымянный_градиент_5-7" x1="269.98" y1="190.79" x2="320.59" y2="257.17" xlink:href="#Безымянный_градиент_5"/><linearGradient id="Безымянный_градиент_5-8" x1="249.3" y1="364.58" x2="356.34" y2="364.58" xlink:href="#Безымянный_градиент_5"/><linearGradient id="Безымянный_градиент_5-9" x1="249.38" y1="402.84" x2="356.34" y2="402.84" xlink:href="#Безымянный_градиент_5"/><linearGradient id="Безымянный_градиент_5-10" x1="272.41" y1="394.71" x2="352.08" y2="394.71" xlink:href="#Безымянный_градиент_5"/><linearGradient id="Безымянный_градиент_5-11" x1="288.94" y1="388.29" x2="292.11" y2="388.29" xlink:href="#Безымянный_градиент_5"/><linearGradient id="Безымянный_градиент_5-12" x1="290.58" y1="389.52" x2="290.8" y2="389.52" xlink:href="#Безымянный_градиент_5"/><linearGradient id="Безымянный_градиент_5-13" x1="237.57" y1="385.19" x2="262.01" y2="385.19" xlink:href="#Безымянный_градиент_5"/><linearGradient id="Безымянный_градиент_5-14" x1="225.88" y1="116.42" x2="286.42" y2="116.42" xlink:href="#Безымянный_градиент_5"/><linearGradient id="Безымянный_градиент_5-15" x1="232.07" y1="116.42" x2="280.23" y2="116.42" xlink:href="#Безымянный_градиент_5"/><linearGradient id="Безымянный_градиент_5-16" x1="-1309.7" y1="-874.49" x2="-1305.88" y2="-874.49" gradientTransform="translate(1560.99 987.56)" xlink:href="#Безымянный_градиент_5"/><linearGradient id="Безымянный_градиент_5-17" x1="4398.25" y1="-2105.05" x2="4402.07" y2="-2105.05" gradientTransform="translate(-4138 2221.85)" xlink:href="#Безымянный_градиент_5"/><linearGradient id="Безымянный_градиент_5-18" x1="154.91" y1="264.63" x2="175.27" y2="267.74" xlink:href="#Безымянный_градиент_5"/><linearGradient id="Безымянный_градиент_5-19" x1="70.37" y1="303.87" x2="148.31" y2="315.78" xlink:href="#Безымянный_градиент_5"/><linearGradient id="Безымянный_градиент_5-20" x1="46.42" y1="288.09" x2="124.67" y2="288.09" xlink:href="#Безымянный_градиент_5"/><linearGradient id="Безымянный_градиент_5-21" x1="77.6" y1="312.87" x2="94.24" y2="312.87" xlink:href="#Безымянный_градиент_5"/><linearGradient id="Безымянный_градиент_5-22" x1="111.9" y1="360.03" x2="200.57" y2="360.03" xlink:href="#Безымянный_градиент_5"/><linearGradient id="Безымянный_градиент_5-23" x1="144.19" y1="307.99" x2="176.58" y2="307.99" xlink:href="#Безымянный_градиент_5"/><linearGradient id="Безымянный_градиент_5-24" x1="68.38" y1="379.4" x2="155.76" y2="392.76" xlink:href="#Безымянный_градиент_5"/><linearGradient id="Безымянный_градиент_5-25" x1="98.9" y1="402.25" x2="122.57" y2="402.25" xlink:href="#Безымянный_градиент_5"/><linearGradient id="Безымянный_градиент_5-26" x1="115.43" y1="377.73" x2="169.16" y2="385.94" xlink:href="#Безымянный_градиент_5"/><linearGradient id="Безымянный_градиент_5-27" x1="-520.32" y1="427.48" x2="-489.86" y2="427.48" gradientTransform="translate(558.55)" xlink:href="#Безымянный_градиент_5"/><linearGradient id="Безымянный_градиент_5-28" x1="-405.32" y1="427.5" x2="-388.92" y2="427.5" gradientTransform="translate(558.55)" xlink:href="#Безымянный_градиент_5"/><linearGradient id="Безымянный_градиент_5-29" x1="1811.67" y1="-5984" x2="1981.51" y2="-5984" gradientTransform="translate(1982.51 -5646) rotate(180)" xlink:href="#Безымянный_градиент_5"/><linearGradient id="Безымянный_градиент_5-30" x1="145.94" y1="311.92" x2="188.45" y2="318.41" xlink:href="#Безымянный_градиент_5"/><linearGradient id="Безымянный_градиент_5-31" x1="181.26" y1="397.92" x2="213.9" y2="397.92" xlink:href="#Безымянный_градиент_5"/><linearGradient id="Безымянный_градиент_5-32" x1="153.27" y1="260.21" x2="177.76" y2="260.21" xlink:href="#Безымянный_градиент_5"/><linearGradient id="Безымянный_градиент_5-33" x1="43.07" y1="331.12" x2="64.9" y2="331.12" xlink:href="#Безымянный_градиент_5"/></defs><title>img-3</title><g id="Слой_2" data-name="Слой 2"><g id="Слой_1-2" data-name="Слой 1"><rect class="cls-1" x="0.57" width="358" height="462"/><rect class="cls-2" x="122.98" y="168.25" width="21.18" height="33.5"/><rect class="cls-3" x="30.09" y="101.83" width="55" height="77.17"/><path class="cls-4" d="M252.88,418.57l-3.1,9.29s-.91,4.26,2.79,5.19a4,4,0,0,0,5.09-3l2.93-8.91A4.07,4.07,0,0,0,258,416h0A4.07,4.07,0,0,0,252.88,418.57Z"/><rect class="cls-5" x="229.4" y="196" width="55.99" height="34.5"/><rect class="cls-6" x="285.41" y="196" width="55.99" height="34.5"/><rect class="cls-7" x="229.4" y="230.5" width="55.99" height="34.5"/><rect class="cls-8" x="285.41" y="230.5" width="55.99" height="34.5"/><path class="cls-9" d="M249.47,390.39s-3.39,20.68,19.85,20.68h87v-93H263.51s-14-.48-14,12.59Z"/><path class="cls-10" d="M249.38,394.55l107,0v16.46h-87S249.38,413.07,249.38,394.55Z"/><path class="cls-11" d="M279.23,390.62s-7.86-.83-6.7,4.41,24.75-.58,24.75-.58h3.35s-2.07,13.2,3.17,13.2c3.83,0,2.8-13.06,2.8-13.06h26.5s-2.29,12.89,2.73,12.89c4.41,0,2.51-12.89,2.51-12.89h6.83a1.81,1.81,0,0,1,1.81,2c-.44,5-2.88,17.77-16.5,15.65-6.55-1.57-7.32,3.24-2.29,4.55,10.92,2,24.46.28,23.88-22.43s-22.17-21.07-28.57-19.1c-6.61,2-19.22,7.86-19.22,7.86l-1.16-3.79s3.2-3.65,0-7.25a20.33,20.33,0,0,0-4.7,4.34s-10.48-2.33-17.76,1.75c-4.51-2-6.26-2.92-6.26-2.92s-.73,6.12,2.18,7.29C275.19,384.39,275.73,390.62,279.23,390.62Z"/><path class="cls-12" d="M278.79,390.73s12.78.27,16.28,4"/><path class="cls-12" d="M281.3,385.48s1.86,1.75,4.48-.33"/><path class="cls-12" d="M293.75,384.06s2.51,1.86,5.13-1"/><path class="cls-13" d="M288.94,388.43a7.52,7.52,0,0,0,3.17-.33"/><line class="cls-14" x1="290.58" y1="388.76" x2="290.8" y2="390.29"/><path class="cls-12" d="M347.64,342.47c-9.77,2-10.27-3-20.25-3s-10,3-19.94,3-10-3-19.94-3-10,3-19.94,3"/><circle class="cls-15" cx="249.79" cy="385.19" r="12.22"/><circle class="cls-16" cx="256.15" cy="116.42" r="30.27"/><circle class="cls-17" cx="256.15" cy="116.42" r="24.08"/><rect class="cls-18" x="251.29" y="106.41" width="3.82" height="13.33" rx="1.72" ry="1.72" transform="translate(-21.01 154.32) rotate(-32.62)"/><rect class="cls-19" x="260.25" y="107.84" width="3.82" height="17.92" rx="1.72" ry="1.72" transform="translate(378.96 -145.36) rotate(90)"/><circle class="cls-20" cx="165.09" cy="266.18" r="10.3"/><path class="cls-21" d="M151.9,289.67s-24,9-33.33,28.33c-24-3-52,10.75-52,10.75s43.33,13.58,55.33-4.08C153.07,318.5,151.9,289.67,151.9,289.67Z"/><path class="cls-22" d="M118.16,313.83H57.91A6.5,6.5,0,0,1,51.45,308l-5-45.7h73.33l4.88,44.28A6.5,6.5,0,0,1,118.16,313.83Z"/><path class="cls-23" d="M94.24,334.75H77.6l5.33-41.15a3,3,0,0,1,3-2.63h0a3,3,0,0,1,3,2.63Z"/><path class="cls-24" d="M200.57,340.33a44.33,44.33,0,1,1-88.67,0c-.08-10.08,20.18,1.67,44.67,1.67S200.57,328.33,200.57,340.33Z"/><path class="cls-25" d="M148.57,291.33c-7.25,6-5.33,33.33,4.67,36.67,9.12,3,27.06-24.78,22.67-34C172.94,287.79,156.23,285,148.57,291.33Z"/><path class="cls-26" d="M160.57,361.33S128.9,341,79.23,356C57.53,399.41,67.9,416.67,67.9,416.67S93.57,394.33,91.23,372C129.23,377.33,160.57,361.33,160.57,361.33Z"/><polygon class="cls-27" points="115.56 374.67 98.9 429.83 103.4 429.83 122.56 376.67 115.56 374.67"/><path class="cls-28" d="M169.23,355.67s-42-13-53.33,19C122.23,412,164.57,416,164.57,416s-13-28-31.33-41C173.57,372.67,169.23,355.67,169.23,355.67Z"/><path class="cls-29" d="M38.23,427.67l27.84-4.84L68.69,432l-4.62-.33-.5-2.83S44.9,437,38.23,427.67Z"/><path class="cls-30" d="M153.23,434l13.56-13,2.83,13Z"/><path class="cls-12" d="M169.63,434V355a6.86,6.86,0,0,0-6.86-6.86H146.9v-5.5"/><path class="cls-12" d="M35.76,342.59v5.5H23.37A6.86,6.86,0,0,0,16.5,355v75.4"/><path class="cls-31" d="M1,334.84H167.68a3.16,3.16,0,0,1,3.16,3.16h0a3.16,3.16,0,0,1-3.16,3.16H1Z"/><path class="cls-32" d="M176.57,294s13.33,18.33,9.33,41c-7.33,6.67-16.67-1-43.33-1,10-11.33,16-7.33,33.33-8C167.9,315.33,174.57,295.33,176.57,294Z"/><path class="cls-33" d="M181.26,369.87l29,60h3.67l-24-63.5C185.23,364.67,181.26,369.87,181.26,369.87Z"/><path class="cls-34" d="M154.07,263l5.25-6s6.5,12.79,16.75,12c4-6.25,1-18-9.75-15.5C158.07,247.25,150.82,256.25,154.07,263Z"/><path class="cls-35" d="M43.07,334.25s5.64-6.45,13.5-6.25,8.33,6.25,8.33,6.25Z"/></g></g></svg>